<?xml version="1.0" standalone="no"?>
<!DOCTYPE svg PUBLIC "-//W3C//DTD SVG 20010904//EN"
 "http://www.w3.org/TR/2001/REC-SVG-20010904/DTD/svg10.dtd">
<svg version="1.0" xmlns="http://www.w3.org/2000/svg"
 width="326.000000pt" height="235.000000pt" viewBox="0 0 326.000000 235.000000"
 preserveAspectRatio="xMidYMid meet">

<g transform="translate(0.000000,235.000000) scale(0.100000,-0.100000)"
fill="#000000" stroke="none">
<path d="M1850 2160 c0 -5 9 -10 20 -10 11 0 20 5 20 10 0 6 -9 10 -20 10 -11
0 -20 -4 -20 -10z"/>
<path d="M1228 2143 c-19 -22 -50 -112 -42 -124 7 -12 84 -11 84 1 0 6 -14 10
-31 10 -33 0 -33 4 -3 78 11 26 18 32 43 32 17 0 31 5 31 10 0 17 -66 11 -82
-7z"/>
<path d="M1724 2145 c-4 -8 -12 -15 -20 -15 -16 0 -19 -17 -3 -22 7 -2 7 -12
0 -31 -17 -44 -14 -67 8 -67 23 0 37 16 20 22 -20 7 9 78 31 78 10 0 22 5 25
10 3 6 -4 10 -15 10 -16 0 -20 5 -16 15 3 9 0 15 -10 15 -8 0 -17 -7 -20 -15z"/>
<path d="M1343 2122 c-6 -4 -21 -31 -32 -60 -19 -47 -19 -53 -5 -50 9 2 24 23
33 48 14 39 21 45 49 48 17 2 32 7 32 13 0 11 -60 12 -77 1z"/>
<path d="M1445 2106 c-9 -13 -19 -40 -22 -60 l-6 -36 42 0 c22 0 41 5 41 10 0
6 -11 10 -25 10 -16 0 -25 6 -25 15 0 10 11 15 35 15 24 0 37 6 45 19 20 38
13 51 -30 51 -31 0 -43 -5 -55 -24z m65 -11 c0 -9 -9 -15 -25 -15 -18 0 -23 4
-19 15 4 8 15 15 25 15 10 0 19 -7 19 -15z"/>
<path d="M1580 2120 c0 -5 11 -10 25 -10 14 0 25 -4 25 -10 0 -5 -13 -10 -28
-10 -33 0 -62 -27 -62 -58 0 -19 6 -22 44 -22 42 0 44 1 60 43 25 67 22 77
-24 77 -22 0 -40 -4 -40 -10z m40 -54 c0 -18 -15 -36 -31 -36 -18 0 -26 20
-12 33 7 8 43 10 43 3z"/>
<path d="M1810 2120 c0 -5 6 -10 14 -10 24 0 -3 -70 -31 -81 -36 -13 -28 -19
27 -19 28 0 50 5 50 10 0 6 -7 10 -15 10 -12 0 -12 5 0 41 20 56 19 59 -15 59
-16 0 -30 -4 -30 -10z"/>
<path d="M1926 2114 c-3 -9 -6 -36 -6 -60 0 -76 42 -53 99 54 22 42 -14 25
-38 -18 -12 -22 -25 -40 -28 -40 -3 0 -3 18 -1 40 4 41 -13 57 -26 24z"/>
<path d="M2045 2106 c-9 -13 -19 -40 -22 -60 l-6 -36 42 0 c22 0 41 5 41 10 0
6 -11 10 -25 10 -42 0 -31 28 13 32 34 3 37 6 40 36 3 31 2 32 -32 32 -26 0
-40 -6 -51 -24z m65 -11 c0 -9 -9 -15 -25 -15 -18 0 -23 4 -19 15 4 8 15 15
25 15 10 0 19 -7 19 -15z"/>
<path d="M1620 1795 c0 -87 3 -105 15 -105 12 0 15 18 15 105 0 87 -3 105 -15
105 -12 0 -15 -18 -15 -105z"/>
<path d="M1040 1757 c0 -16 121 -137 138 -137 22 0 12 15 -56 83 -69 68 -82
77 -82 54z"/>
<path d="M2147 1702 c-68 -69 -77 -82 -54 -82 17 0 149 134 141 143 -13 12
-18 8 -87 -61z"/>
<path d="M1450 1498 c-176 -18 -335 -71 -361 -120 -8 -14 -12 -53 -10 -96 3
-114 5 -112 -100 -112 -72 0 -89 -3 -89 -15 0 -12 17 -15 95 -15 l95 0 0 -69
c0 -65 2 -71 30 -94 82 -69 249 -102 525 -102 276 0 443 33 525 102 28 23 30
29 30 94 l0 69 120 0 c102 0 119 2 114 15 -5 12 -28 15 -120 15 l-115 0 2 95
c2 112 -8 132 -77 164 -141 67 -416 95 -664 69z m495 -42 c100 -23 161 -46
198 -77 28 -24 30 -29 20 -52 -27 -58 -219 -111 -443 -123 -283 -15 -590 48
-615 127 -17 51 93 103 283 134 115 19 457 13 557 -9z m-802 -196 c19 -11 79
-32 133 -46 85 -23 127 -27 294 -31 290 -8 434 15 593 95 4 2 7 -54 7 -125 0
-147 -3 -153 -90 -192 -197 -86 -728 -84 -903 5 -75 38 -77 44 -77 186 0 70 2
128 4 128 3 0 20 -9 39 -20z"/>
<path d="M2034 1105 c-4 -9 0 -23 8 -31 20 -20 50 -7 46 20 -4 26 -45 35 -54
11z m41 -6 c10 -15 -1 -23 -20 -15 -9 3 -13 10 -10 16 8 13 22 13 30 -1z"/>
<path d="M1951 1086 c-16 -20 -3 -46 24 -46 13 0 26 7 29 16 7 19 -10 44 -29
44 -7 0 -18 -6 -24 -14z m39 -21 c0 -8 -7 -15 -15 -15 -8 0 -15 7 -15 15 0 8
7 15 15 15 8 0 15 -7 15 -15z"/>
<path d="M0 1155 c0 -12 18 -15 100 -15 82 0 100 3 100 15 0 12 -18 15 -100
15 -82 0 -100 -3 -100 -15z"/>
<path d="M310 1155 c0 -11 11 -15 40 -15 29 0 40 4 40 15 0 11 -11 15 -40 15
-29 0 -40 -4 -40 -15z"/>
<path d="M500 1155 c0 -11 11 -15 40 -15 29 0 40 4 40 15 0 11 -11 15 -40 15
-29 0 -40 -4 -40 -15z"/>
<path d="M700 1155 c0 -11 11 -15 40 -15 29 0 40 4 40 15 0 11 -11 15 -40 15
-29 0 -40 -4 -40 -15z"/>
<path d="M2550 1155 c0 -13 24 -15 160 -15 136 0 160 2 160 15 0 13 -24 15
-160 15 -136 0 -160 -2 -160 -15z"/>
<path d="M3000 1155 c0 -13 21 -15 130 -15 109 0 130 2 130 15 0 13 -21 15
-130 15 -109 0 -130 -2 -130 -15z"/>
<path d="M1102 667 c-56 -57 -75 -87 -54 -87 10 0 142 133 142 143 0 21 -32 0
-88 -56z"/>
<path d="M2080 722 c0 -10 133 -142 143 -142 21 0 0 32 -56 88 -57 56 -87 75
-87 54z"/>
<path d="M1620 575 c0 -87 3 -105 15 -105 12 0 15 18 15 105 0 87 -3 105 -15
105 -12 0 -15 -18 -15 -105z"/>
<path d="M2060 320 c0 -5 7 -10 16 -10 10 0 14 -6 11 -14 -3 -8 -11 -33 -18
-56 -9 -28 -21 -45 -36 -51 -36 -13 -28 -19 27 -19 28 0 50 5 50 10 0 6 -6 10
-14 10 -12 0 -10 13 9 70 l24 70 -35 0 c-19 0 -34 -4 -34 -10z"/>
<path d="M1200 258 c-13 -35 -25 -69 -27 -75 -3 -7 2 -13 10 -13 8 0 20 14 26
30 7 22 16 30 33 30 29 0 42 9 57 38 19 36 7 52 -37 52 -39 0 -39 0 -62 -62z
m78 26 c-3 -19 -34 -41 -43 -32 -4 4 -4 16 0 27 8 25 48 29 43 5z"/>
<path d="M1604 305 c-4 -8 -12 -15 -20 -15 -16 0 -19 -17 -3 -22 7 -2 7 -12 0
-31 -17 -44 -14 -67 8 -67 23 0 37 16 20 22 -20 7 9 78 31 78 10 0 22 5 25 10
3 6 -4 10 -15 10 -16 0 -20 5 -16 15 3 9 0 15 -10 15 -8 0 -17 -7 -20 -15z"/>
<path d="M1343 282 c-6 -4 -21 -31 -32 -60 -19 -47 -19 -53 -5 -50 9 2 24 23
33 48 14 39 21 45 49 48 17 2 32 7 32 13 0 11 -60 12 -77 1z"/>
<path d="M1445 266 c-9 -13 -19 -40 -22 -60 l-6 -36 41 0 c48 0 69 23 79 84
l6 36 -41 0 c-33 0 -45 -5 -57 -24z m65 -5 c0 -29 -24 -71 -41 -71 -22 0 -23
6 -8 49 7 20 18 31 30 31 10 0 19 -4 19 -9z"/>
<path d="M1685 266 c-9 -13 -19 -40 -22 -60 l-6 -36 41 0 c48 0 69 23 79 84
l6 36 -41 0 c-33 0 -45 -5 -57 -24z m65 -5 c0 -29 -24 -71 -41 -71 -22 0 -23
6 -8 49 7 20 18 31 30 31 10 0 19 -4 19 -9z"/>
<path d="M1813 278 c-12 -16 -33 -76 -33 -94 0 -10 14 -14 45 -14 25 0 45 5
45 10 0 6 -14 10 -31 10 -24 0 -30 3 -25 16 3 9 9 27 12 40 5 19 13 24 39 24
19 0 37 5 40 10 9 15 -81 12 -92 -2z"/>
<path d="M1925 266 c-9 -13 -19 -40 -22 -60 l-6 -36 41 0 c48 0 69 23 79 84
l6 36 -41 0 c-33 0 -45 -5 -57 -24z m65 -5 c0 -29 -24 -71 -41 -71 -22 0 -23
6 -8 49 7 20 18 31 30 31 10 0 19 -4 19 -9z"/>
</g>
</svg>
